<svg width="24" height="25" viewBox="0 0 24 25" fill="none" xmlns="http://www.w3.org/2000/svg">
<path d="M17 4.31255C17 4.17995 16.9473 4.05277 16.8536 3.959C16.7598 3.86523 16.6326 3.81255 16.5 3.81255H14C12.7411 3.74984 11.5086 4.18794 10.5717 5.03113C9.63485 5.87432 9.06978 7.05405 9 8.31255V11.0126H6.5C6.36739 11.0126 6.24021 11.0652 6.14645 11.159C6.05268 11.2528 6 11.3799 6 11.5126V14.1126C6 14.2452 6.05268 14.3723 6.14645 14.4661C6.24021 14.5599 6.36739 14.6126 6.5 14.6126H9V21.3126C9 21.4452 9.05268 21.5723 9.14645 21.6661C9.24021 21.7599 9.36739 21.8126 9.5 21.8126H12.5C12.6326 21.8126 12.7598 21.7599 12.8536 21.6661C12.9473 21.5723 13 21.4452 13 21.3126V14.6126H15.62C15.7312 14.6142 15.8397 14.5786 15.9285 14.5116C16.0172 14.4446 16.0811 14.3499 16.11 14.2426L16.83 11.6426C16.8499 11.5687 16.8526 11.4912 16.8378 11.4161C16.8231 11.3411 16.7913 11.2704 16.7449 11.2095C16.6985 11.1487 16.6388 11.0993 16.5704 11.0651C16.5019 11.031 16.4265 11.013 16.35 11.0126H13V8.31255C13.0249 8.06503 13.1411 7.83567 13.326 7.66925C13.5109 7.50283 13.7512 7.41131 14 7.41255H16.5C16.6326 7.41255 16.7598 7.35987 16.8536 7.26611C16.9473 7.17234 17 7.04516 17 6.91255V4.31255Z" fill="white"/>
</svg>
