<svg width="21" height="24" viewBox="0 0 21 24" fill="none" xmlns="http://www.w3.org/2000/svg">
<path d="M18.7951 6.80457C18.3519 6.80457 17.9388 6.92609 17.5959 7.13315C17.3004 6.37688 16.4991 5.8325 15.5598 5.8325C15.1165 5.8325 14.7035 5.95403 14.3605 6.16108C14.0651 5.40481 13.2638 4.86043 12.3244 4.86043C11.9319 4.86043 11.5631 4.95571 11.246 5.12194V1.94418C11.246 0.871959 10.2786 0 9.0891 0C7.89955 0 6.93218 0.871959 6.93218 1.94418V13.3088L3.96754 11.9722C3.52106 11.7709 3.02065 11.665 2.52134 11.665C1.38467 11.665 0.461487 12.4981 0.461487 13.5275C0.461487 14.0242 0.676081 14.4899 1.06544 14.8408L8.03867 21.1263C9.61428 22.5475 11.7119 23.33 13.9421 23.33C17.8073 23.33 20.9521 20.4954 20.9521 17.0114V8.74875C20.9521 7.67653 19.9847 6.80457 18.7951 6.80457ZM19.8736 17.0114C19.8736 19.9598 17.2119 22.3579 13.941 22.3579C11.9987 22.3579 10.174 21.6764 8.80221 20.438L1.82792 14.1526C1.64244 13.9863 1.53997 13.7637 1.53997 13.5217C1.53997 13.0337 1.97998 12.6371 2.52134 12.6371C2.85458 12.6371 3.18676 12.7081 3.48547 12.8422L7.23095 14.5298C7.39812 14.6046 7.5976 14.5968 7.75507 14.5084C7.9136 14.4199 8.01066 14.2634 8.01066 14.0952V1.94418C8.01066 1.40855 8.49379 0.972114 9.0891 0.972114C9.6844 0.972114 10.1675 1.40859 10.1675 1.94418V11.179C10.1675 11.4473 10.4091 11.665 10.7068 11.665C11.0044 11.665 11.246 11.4473 11.246 11.179V6.80461C11.246 6.26898 11.7291 5.83255 12.3244 5.83255C12.9197 5.83255 13.4029 6.26903 13.4029 6.80461V11.179C13.4029 11.4473 13.6445 11.665 13.9421 11.665C14.2398 11.665 14.4814 11.4473 14.4814 11.179V7.77668C14.4814 7.24105 14.9645 6.80461 15.5598 6.80461C16.1551 6.80461 16.6382 7.24109 16.6382 7.77668V11.179C16.6382 11.4473 16.8798 11.665 17.1775 11.665C17.4751 11.665 17.7167 11.4473 17.7167 11.179V8.74875C17.7167 8.21312 18.1998 7.77668 18.7951 7.77668C19.3904 7.77668 19.8736 8.21316 19.8736 8.74875V17.0114Z" fill="white"/>
</svg>
